<svg width="103" height="128" viewBox="0 0 103 128" fill="none" xmlns="http://www.w3.org/2000/svg">
<g filter="url(#filter0_d_20_5)">
<rect x="-0.000152588" y="0.995605" width="103" height="126" rx="13" fill="#E5ECFE"/>
</g>
<path d="M32.0398 30.9953C27.7325 34.0113 26.5974 40.0079 29.6134 44.316L45.1238 66.4676L39.4831 74.5224C34.305 71.5232 27.6043 72.934 24.1082 77.9276C20.417 83.2009 21.698 90.4664 26.9702 94.1591C32.2427 97.8502 39.5097 96.5702 43.2024 91.2968C45.736 87.6782 45.9259 83.1203 44.0925 79.4242L51.0002 69.5584L57.9071 79.4233C56.0746 83.1194 56.2645 87.6771 58.7972 91.2959C62.4899 96.569 69.7562 97.8491 75.0285 94.1582C80.3016 90.4654 81.5826 83.1992 77.8914 77.9268C74.3953 72.9338 67.6946 71.5233 62.5165 74.5217L56.8758 66.4668L72.3852 44.3161C75.4022 40.008 74.2663 34.0114 69.9588 30.9954L51.0001 58.0745L32.0398 30.9953ZM39.7226 84.5865C39.7226 87.9231 37.0175 90.6283 33.6808 90.6283C30.3442 90.6283 27.6391 87.923 27.6391 84.5865C27.6391 81.2491 30.3442 78.5447 33.6808 78.5447C37.0175 78.5447 39.7226 81.2491 39.7226 84.5865ZM74.3618 84.5865C74.3618 87.9231 71.6567 90.6282 68.32 90.6282C64.9834 90.6282 62.2783 87.9231 62.2783 84.5865C62.2783 81.2491 64.9834 78.5447 68.32 78.5447C71.6566 78.5447 74.3618 81.249 74.3618 84.5865Z" fill="#008FDD"/>
<defs>
<filter id="filter0_d_20_5" x="-0.000152588" y="0.995605" width="103" height="127" filterUnits="userSpaceOnUse" color-interpolation-filters="sRGB">
<feFlood flood-opacity="0" result="BackgroundImageFix"/>
<feColorMatrix in="SourceAlpha" type="matrix" values="0 0 0 0 0 0 0 0 0 0 0 0 0 0 0 0 0 0 127 0" result="hardAlpha"/>
<feOffset dy="1"/>
<feColorMatrix type="matrix" values="0 0 0 0 0 0 0 0 0 0.560784 0 0 0 0 0.866667 0 0 0 1 0"/>
<feBlend mode="normal" in2="BackgroundImageFix" result="effect1_dropShadow_20_5"/>
<feBlend mode="normal" in="SourceGraphic" in2="effect1_dropShadow_20_5" result="shape"/>
</filter>
</defs>
</svg>
