<svg width="103" height="128" viewBox="0 0 103 128" fill="none" xmlns="http://www.w3.org/2000/svg">
<g filter="url(#filter0_d_20_6)">
<rect x="-0.00012207" y="0.995605" width="103" height="126" rx="13" fill="#E5ECFE"/>
</g>
<g clip-path="url(#clip0_20_6)">
<path d="M49.1062 54.4172L49.1062 49.8364L53.687 49.8364L53.687 54.4172L49.1062 54.4172Z" fill="#008FDD"/>
<path d="M49.7775 78.0411C49.3451 78.4735 49.1066 79.0487 49.1066 79.6602L49.107 88.2513C49.1066 88.8631 49.3451 89.4384 49.7775 89.8708C50.2102 90.3035 50.7851 90.5417 51.397 90.5413C52.0084 90.5413 52.5833 90.3032 53.0161 89.8704C53.4485 89.438 53.687 88.8628 53.687 88.2513L53.6874 79.6602C53.6874 79.0487 53.4492 78.4731 53.0168 78.0407C52.5841 77.608 52.0092 77.3698 51.397 77.3698C50.7851 77.3702 50.2102 77.6083 49.7775 78.0411Z" fill="#008FDD"/>
<path d="M57.6977 56.4214C57.6977 56.9752 57.4732 57.4767 57.1102 57.8396C56.7476 58.2022 56.2462 58.4267 55.6923 58.4267L47.1012 58.4271C46.5695 58.4271 46.0592 58.2159 45.6834 57.84C45.3071 57.4637 45.0959 56.9534 45.0959 56.4217L45.0963 49.8356L33.2839 49.836L33.2836 87.1775C33.2836 92.0161 35.1678 96.5647 38.5888 99.9857C41.5327 102.93 45.3119 104.734 49.3916 105.181L49.3916 109.958C49.3916 111.065 50.2892 111.963 51.397 111.963C51.9508 111.963 52.4519 111.739 52.8149 111.376C53.1778 111.013 53.4023 110.512 53.4019 109.958L53.4019 105.181C57.482 104.734 61.2612 102.93 64.2052 99.9857C67.6262 96.5647 69.51 92.0157 69.5104 87.1775L69.5104 49.8356L57.6977 49.8356V56.4214ZM57.698 79.6602L57.6977 88.2513C57.6973 89.9339 57.0423 91.5165 55.8522 92.7065C54.6622 93.8966 53.08 94.552 51.397 94.552C49.714 94.552 48.1318 93.8966 46.9417 92.7065C45.7517 91.5165 45.0963 89.9343 45.0963 88.2513L45.0963 79.6606C45.0963 77.9776 45.7517 76.3954 46.9417 75.2053C48.1322 74.0149 49.7143 73.3595 51.3973 73.3595C53.08 73.3599 54.6625 74.0149 55.8526 75.205C57.0423 76.3954 57.6977 77.9776 57.698 79.6602Z" fill="#008FDD"/>
<path d="M67.505 32.9389C66.3973 32.9389 65.4997 33.8365 65.4997 34.9443V37.2343H63.0672V34.9443C63.0672 33.8365 62.1695 32.9389 61.0622 32.9385C59.9548 32.9389 59.0572 33.8365 59.0568 34.9439L59.0565 37.2343L56.6239 37.2343V34.9443C56.6239 33.8365 55.7263 32.9389 54.619 32.9385C53.5116 32.9389 52.614 33.8365 52.6136 34.9439L52.6132 37.2343L50.1807 37.2343V34.9435C50.1807 33.8365 49.2827 32.9385 48.1757 32.9385C47.068 32.9385 46.1704 33.8362 46.1704 34.9439L46.17 37.2343H43.7375L43.7371 34.9439C43.7375 33.8365 42.8395 32.9385 41.7321 32.9389C40.6244 32.9389 39.7268 33.8365 39.7268 34.9443V37.2343L37.2939 37.2346L37.2935 34.9443C37.2939 33.8369 36.3959 32.9389 35.2885 32.9393C34.1808 32.9393 33.2832 33.8369 33.2832 34.9446L33.2832 39.2396C33.2836 39.24 33.2836 39.24 33.2836 39.2407V45.8257L69.5104 45.825L69.51 39.2404C69.51 39.2404 69.5104 39.24 69.5104 39.2392L69.51 34.9439C69.5104 33.8365 68.6124 32.9385 67.505 32.9389Z" fill="#008FDD"/>
</g>
<defs>
<filter id="filter0_d_20_6" x="-0.00012207" y="0.995605" width="103" height="127" filterUnits="userSpaceOnUse" color-interpolation-filters="sRGB">
<feFlood flood-opacity="0" result="BackgroundImageFix"/>
<feColorMatrix in="SourceAlpha" type="matrix" values="0 0 0 0 0 0 0 0 0 0 0 0 0 0 0 0 0 0 127 0" result="hardAlpha"/>
<feOffset dy="1"/>
<feColorMatrix type="matrix" values="0 0 0 0 0 0 0 0 0 0.560784 0 0 0 0 0.866667 0 0 0 1 0"/>
<feBlend mode="normal" in2="BackgroundImageFix" result="effect1_dropShadow_20_6"/>
<feBlend mode="normal" in="SourceGraphic" in2="effect1_dropShadow_20_6" result="shape"/>
</filter>
<clipPath id="clip0_20_6">
<rect width="68.4436" height="68.4436" fill="white" transform="translate(3 64.397) rotate(-45)"/>
</clipPath>
</defs>
</svg>
