<svg width="103" height="128" viewBox="0 0 103 128" fill="none" xmlns="http://www.w3.org/2000/svg">
<g filter="url(#filter0_d_20_8)">
<rect x="-0.00012207" y="0.995605" width="103" height="126" rx="13" fill="#E5ECFE"/>
</g>
<path d="M26.7344 31V38.7344H24.8008V42.6016H40.2695V38.7344H38.3359V34.8672H47.2033L50.504 38.1678L53.2381 35.4337L48.8045 31H26.7344Z" fill="#008FDD"/>
<path d="M65.5352 83.3379C65.5352 84.4029 66.4019 85.2695 67.4688 85.2695C68.5338 85.2695 69.4023 84.4028 69.4023 83.3359C69.3853 82.743 68.581 81.0587 67.4688 79.1855C66.3546 81.0624 65.5502 82.7468 65.5352 83.3379Z" fill="#008FDD"/>
<path d="M77.2656 62.0664V58.1992H57.6719V62.0664H54.5431C51.2221 68.7764 49.9375 74.8484 49.9375 79.4688C49.9375 84.0846 51.219 90.2836 54.5431 97H80.3946C83.7155 90.2898 85 84.0891 85 79.4688C85 74.8529 83.7185 68.7828 80.3944 62.0664H77.2656ZM67.4688 89.1367C64.2701 89.1367 61.668 86.5346 61.668 83.3359C61.668 80.8642 64.6118 76.3361 65.8769 74.5026L67.4688 72.199L69.0606 74.5026C70.3257 76.3361 73.2695 80.8642 73.2695 83.3359C73.2695 86.5346 70.6674 89.1367 67.4688 89.1367Z" fill="#008FDD"/>
<path d="M57.6719 42.6016H77.2656V54.332H57.6719V42.6016Z" fill="#008FDD"/>
<path d="M30.6016 75.6035C30.6016 76.6684 31.4683 77.5352 32.5352 77.5352C33.6002 77.5352 34.4688 76.6684 34.4688 75.6016C34.4517 75.0086 33.6474 73.3243 32.5352 71.4512C31.421 73.328 30.6166 75.0125 30.6016 75.6035Z" fill="#008FDD"/>
<path d="M19 89.1367H46.0703V97H19V89.1367Z" fill="#008FDD"/>
<path d="M19 46.4688H46.0703V54.332H19V46.4688Z" fill="#008FDD"/>
<path d="M46.0703 58.1992H19V85.2695H46.0703V58.1992ZM32.5352 81.4023C29.3365 81.4023 26.7344 78.8002 26.7344 75.6016C26.7344 73.1298 29.6782 68.6017 30.9433 66.7683L32.5352 64.4646L34.127 66.7683C35.3921 68.6017 38.3359 73.1298 38.3359 75.6016C38.3359 78.8002 35.7338 81.4023 32.5352 81.4023Z" fill="#008FDD"/>
<defs>
<filter id="filter0_d_20_8" x="-0.00012207" y="0.995605" width="103" height="127" filterUnits="userSpaceOnUse" color-interpolation-filters="sRGB">
<feFlood flood-opacity="0" result="BackgroundImageFix"/>
<feColorMatrix in="SourceAlpha" type="matrix" values="0 0 0 0 0 0 0 0 0 0 0 0 0 0 0 0 0 0 127 0" result="hardAlpha"/>
<feOffset dy="1"/>
<feColorMatrix type="matrix" values="0 0 0 0 0 0 0 0 0 0.560784 0 0 0 0 0.866667 0 0 0 1 0"/>
<feBlend mode="normal" in2="BackgroundImageFix" result="effect1_dropShadow_20_8"/>
<feBlend mode="normal" in="SourceGraphic" in2="effect1_dropShadow_20_8" result="shape"/>
</filter>
</defs>
</svg>
